<svg width="35" height="35" viewBox="0 0 35 35" fill="none" xmlns="http://www.w3.org/2000/svg">
<path d="M19.214 3.24983L30.946 11.8954C31.606 12.38 32 13.1267 32 13.9236V29.7233C32 31.1842 30.724 32.3078 29.234 32.3078H24V23.7824C24 22.4734 23.4205 21.218 22.3891 20.2924C21.3576 19.3667 19.9587 18.8467 18.5 18.8467H16.5C15.0413 18.8467 13.6424 19.3667 12.6109 20.2924C11.5795 21.218 11 22.4734 11 23.7824V32.3078H5.76601C4.27602 32.3078 3.00002 31.1842 3.00002 29.7233V13.9254C3.00002 13.1267 3.39402 12.3818 4.05402 11.8972L15.786 3.24803C16.2674 2.88864 16.8738 2.69186 17.5 2.69186C18.1262 2.69186 18.7326 2.89043 19.214 3.24983ZM29.234 34.9982C32.454 34.9982 35 32.6021 35 29.7215V13.9236C35.0023 13.1385 34.8107 12.3627 34.4389 11.652C34.0672 10.9413 33.5245 10.3134 32.85 9.81344L21.12 1.16785C20.102 0.412957 18.8226 0 17.502 0C16.1814 0 14.902 0.412957 13.884 1.16785L2.15002 9.81524C1.4755 10.3152 0.932846 10.9431 0.561088 11.6538C0.189331 12.3645 -0.00228625 13.1403 2.05836e-05 13.9254V29.7233C2.05836e-05 32.6039 2.54602 35 5.76601 35L29.234 34.9982Z" fill="#098181"/>
</svg>
