<svg width="26" height="26" viewBox="0 0 26 26" fill="none" xmlns="http://www.w3.org/2000/svg">
<g filter="url(#filter0_d_15_468)">
<path d="M7.25 6.97518e-09H18.75C19.5801 -5.43467e-05 20.3788 0.317554 20.9822 0.887672C21.5856 1.45779 21.948 2.23719 21.995 3.066L22 3.25V14.75C22.0001 15.5801 21.6824 16.3788 21.1123 16.9822C20.5422 17.5856 19.7628 17.948 18.934 17.995L18.75 18H7.25C6.41986 18.0001 5.62117 17.6824 5.01777 17.1123C4.41437 16.5422 4.052 15.7628 4.005 14.934L4 14.75V3.25C3.99995 2.41986 4.31755 1.62117 4.88767 1.01777C5.45779 0.414367 6.23719 0.0519987 7.066 0.00500012L7.25 6.97518e-09ZM9.325 11.5H5.5V14.75C5.50002 15.1892 5.66517 15.6123 5.96268 15.9354C6.26019 16.2585 6.6683 16.4579 7.106 16.494L7.25 16.5H18.75C19.1893 16.5 19.6126 16.3347 19.9357 16.037C20.2588 15.7392 20.4581 15.3309 20.494 14.893L20.5 14.75V11.5H16.675C16.509 12.3135 16.0778 13.0489 15.4489 13.5909C14.82 14.1329 14.0291 14.4509 13.2 14.495L13 14.5C12.1685 14.5003 11.3605 14.2242 10.7031 13.7152C10.0456 13.2061 9.57598 12.493 9.368 11.688L9.325 11.5ZM18.75 1.5H7.25C6.81081 1.50002 6.38768 1.66517 6.06461 1.96268C5.74154 2.26019 5.54214 2.6683 5.506 3.106L5.5 3.25V10H10C10.1812 10 10.3563 10.0656 10.4929 10.1848C10.6295 10.3039 10.7184 10.4684 10.743 10.648L10.75 10.75C10.7489 11.3341 10.975 11.8958 11.3806 12.3162C11.7861 12.7366 12.3392 12.9828 12.923 13.0028C13.5067 13.0228 14.0754 12.815 14.5087 12.4233C14.9421 12.0317 15.2061 11.4868 15.245 10.904L15.25 10.75C15.25 10.5688 15.3156 10.3937 15.4348 10.2571C15.5539 10.1205 15.7184 10.0316 15.898 10.007L16 10H20.5V3.25C20.5 2.81065 20.3347 2.38739 20.037 2.06429C19.7392 1.74119 19.3309 1.5419 18.893 1.506L18.75 1.5ZM7.75 6.5H18.25C18.44 6.50006 18.6229 6.57224 18.7618 6.70197C18.9006 6.8317 18.9851 7.0093 18.998 7.19888C19.011 7.38846 18.9515 7.57589 18.8316 7.7233C18.7117 7.87071 18.5402 7.9671 18.352 7.993L18.25 8H7.75C7.55998 7.99994 7.37706 7.92776 7.23821 7.79803C7.09936 7.6683 7.01493 7.4907 7.00197 7.30112C6.98902 7.11154 7.04852 6.92411 7.16843 6.7767C7.28835 6.62929 7.45975 6.5329 7.648 6.507L7.75 6.5ZM7.75 3.5H18.25C18.44 3.50006 18.6229 3.57224 18.7618 3.70197C18.9006 3.8317 18.9851 4.0093 18.998 4.19888C19.011 4.38846 18.9515 4.57589 18.8316 4.7233C18.7117 4.87071 18.5402 4.9671 18.352 4.993L18.25 5H7.75C7.55998 4.99994 7.37706 4.92776 7.23821 4.79803C7.09936 4.6683 7.01493 4.4907 7.00197 4.30112C6.98902 4.11154 7.04852 3.92411 7.16843 3.7767C7.28835 3.62929 7.45975 3.5329 7.648 3.507L7.75 3.5Z" fill="#585454"/>
</g>
<defs>
<filter id="filter0_d_15_468" x="0" y="0" width="26" height="26" filterUnits="userSpaceOnUse" color-interpolation-filters="sRGB">
<feFlood flood-opacity="0" result="BackgroundImageFix"/>
<feColorMatrix in="SourceAlpha" type="matrix" values="0 0 0 0 0 0 0 0 0 0 0 0 0 0 0 0 0 0 127 0" result="hardAlpha"/>
<feOffset dy="4"/>
<feGaussianBlur stdDeviation="2"/>
<feComposite in2="hardAlpha" operator="out"/>
<feColorMatrix type="matrix" values="0 0 0 0 0 0 0 0 0 0 0 0 0 0 0 0 0 0 0.25 0"/>
<feBlend mode="normal" in2="BackgroundImageFix" result="effect1_dropShadow_15_468"/>
<feBlend mode="normal" in="SourceGraphic" in2="effect1_dropShadow_15_468" result="shape"/>
</filter>
</defs>
</svg>
