<svg width="35" height="35" viewBox="0 0 35 35" fill="none" xmlns="http://www.w3.org/2000/svg">
<path fill-rule="evenodd" clip-rule="evenodd" d="M23.8637 12.7274C23.8637 14.4151 23.1932 16.0338 21.9998 17.2272C20.8064 18.4206 19.1878 19.091 17.5 19.091C15.8123 19.091 14.1937 18.4206 13.0002 17.2272C11.8068 16.0338 11.1364 14.4151 11.1364 12.7274C11.1364 11.0397 11.8068 9.42105 13.0002 8.22764C14.1937 7.03422 15.8123 6.36377 17.5 6.36377C19.1878 6.36377 20.8064 7.03422 21.9998 8.22764C23.1932 9.42105 23.8637 11.0397 23.8637 12.7274ZM20.6818 12.7274C20.6818 13.5713 20.3466 14.3806 19.7499 14.9773C19.1532 15.574 18.3439 15.9092 17.5 15.9092C16.6561 15.9092 15.8468 15.574 15.2501 14.9773C14.6534 14.3806 14.3182 13.5713 14.3182 12.7274C14.3182 11.8835 14.6534 11.0742 15.2501 10.4775C15.8468 9.88081 16.6561 9.54559 17.5 9.54559C18.3439 9.54559 19.1532 9.88081 19.7499 10.4775C20.3466 11.0742 20.6818 11.8835 20.6818 12.7274Z" fill="#383737"/>
<path fill-rule="evenodd" clip-rule="evenodd" d="M17.5 0C7.83523 0 0 7.83523 0 17.5C0 27.1648 7.83523 35 17.5 35C27.1648 35 35 27.1648 35 17.5C35 7.83523 27.1648 0 17.5 0ZM3.18182 17.5C3.18182 20.825 4.31614 23.8859 6.21727 26.3168C7.55275 24.5638 9.27524 23.1432 11.2503 22.1657C13.2254 21.1882 15.3997 20.6804 17.6034 20.6818C19.7788 20.6793 21.926 21.1736 23.8813 22.127C25.8367 23.0804 27.5484 24.4677 28.8861 26.1832C30.2646 24.3753 31.1927 22.2651 31.5937 20.0273C31.9947 17.7895 31.8571 15.4884 31.1922 13.3143C30.5273 11.1402 29.3542 9.15576 27.7701 7.52506C26.186 5.89436 24.2363 4.66432 22.0824 3.93672C19.9285 3.20912 17.6324 3.00486 15.3839 3.34087C13.1354 3.67687 10.9992 4.54346 9.15213 5.86895C7.30505 7.19443 5.80015 8.9407 4.76196 10.9633C3.72376 12.9858 3.18211 15.2265 3.18182 17.5ZM17.5 31.8182C14.213 31.8235 11.0252 30.6927 8.47636 28.6173C9.5022 27.1483 10.8678 25.9489 12.4569 25.1212C14.0461 24.2935 15.8117 23.8621 17.6034 23.8636C19.3728 23.8621 21.117 24.2828 22.6911 25.0907C24.2652 25.8987 25.6239 27.0706 26.6541 28.5091C24.0855 30.6521 20.8451 31.8234 17.5 31.8182Z" fill="#383737"/>
</svg>
