<svg width="35" height="35" viewBox="0 0 35 35" fill="none" xmlns="http://www.w3.org/2000/svg">
<path d="M24.9812 30.1875L31.0625 24.15L29.225 22.3125L24.9812 26.4687L23.275 24.7625L21.4375 26.6437L24.9812 30.1875ZM5.25 10.5H26.25V7H5.25V10.5ZM26.25 35C23.8292 35 21.7659 34.1466 20.0602 32.4398C18.3546 30.7329 17.5012 28.6697 17.5 26.25C17.4988 23.8303 18.3522 21.7671 20.0602 20.0602C21.7682 18.3534 23.8315 17.5 26.25 17.5C28.6685 17.5 30.7323 18.3534 32.4415 20.0602C34.1507 21.7671 35.0035 23.8303 35 26.25C34.9965 28.6697 34.1431 30.7335 32.4397 32.4415C30.7364 34.1495 28.6732 35.0023 26.25 35ZM0 33.25V3.5C0 2.5375 0.343 1.71383 1.029 1.029C1.715 0.344167 2.53867 0.00116667 3.5 0H28C28.9625 0 29.7867 0.343 30.4727 1.029C31.1587 1.715 31.5012 2.53867 31.5 3.5V15.1812C30.9458 14.9187 30.3771 14.7 29.7937 14.525C29.2104 14.35 28.6125 14.2187 28 14.1312V3.5H3.5V28.0875H14.1312C14.2771 28.9917 14.5034 29.8521 14.8102 30.6687C15.1171 31.4854 15.5178 32.2583 16.0125 32.9875L15.75 33.25L13.125 30.625L10.5 33.25L7.875 30.625L5.25 33.25L2.625 30.625L0 33.25ZM5.25 24.5H14.1312C14.2187 23.8875 14.35 23.2896 14.525 22.7062C14.7 22.1229 14.9187 21.5542 15.1812 21H5.25V24.5ZM5.25 17.5H17.675C18.7833 16.4208 20.0742 15.5674 21.5477 14.9397C23.0212 14.3121 24.5887 13.9988 26.25 14H5.25V17.5Z" fill="#098181"/>
</svg>
